<svg width="40" height="40" viewBox="0 0 40 40" fill="none" xmlns="http://www.w3.org/2000/svg">
<rect width="40" height="40" rx="20" fill="#76B900" fill-opacity="0.1"/>
<path d="M11 22V20H18V22H11ZM11 18V16H22V18H11ZM11 14V12H22V14H11ZM20 28V24.925L25.525 19.425C25.675 19.275 25.8417 19.1667 26.025 19.1C26.2083 19.0333 26.3917 19 26.575 19C26.775 19 26.9667 19.0375 27.15 19.1125C27.3333 19.1875 27.5 19.3 27.65 19.45L28.575 20.375C28.7083 20.525 28.8125 20.6917 28.8875 20.875C28.9625 21.0583 29 21.2417 29 21.425C29 21.6083 28.9667 21.7958 28.9 21.9875C28.8333 22.1792 28.725 22.35 28.575 22.5L23.075 28H20ZM26.575 22.4L27.5 21.425L26.575 20.5L25.625 21.45L26.575 22.4Z" fill="#76B900"/>
</svg>
