<svg width="40" height="40" viewBox="0 0 40 40" fill="none" xmlns="http://www.w3.org/2000/svg">
<rect width="40" height="40" rx="20" fill="#76B900" fill-opacity="0.1"/>
<path d="M22 23C22.2833 23 22.5292 22.8958 22.7375 22.6875C22.9458 22.4792 23.05 22.2333 23.05 21.95C23.05 21.6667 22.9458 21.4208 22.7375 21.2125C22.5292 21.0042 22.2833 20.9 22 20.9C21.7167 20.9 21.4708 21.0042 21.2625 21.2125C21.0542 21.4208 20.95 21.6667 20.95 21.95C20.95 22.2333 21.0542 22.4792 21.2625 22.6875C21.4708 22.8958 21.7167 23 22 23ZM21.25 19.8H22.75C22.75 19.3167 22.8 18.9625 22.9 18.7375C23 18.5125 23.2333 18.2167 23.6 17.85C24.1 17.35 24.4333 16.9458 24.6 16.6375C24.7667 16.3292 24.85 15.9667 24.85 15.55C24.85 14.8 24.5875 14.1875 24.0625 13.7125C23.5375 13.2375 22.85 13 22 13C21.3167 13 20.7208 13.1917 20.2125 13.575C19.7042 13.9583 19.35 14.4667 19.15 15.1L20.5 15.65C20.65 15.2333 20.8542 14.9208 21.1125 14.7125C21.3708 14.5042 21.6667 14.4 22 14.4C22.4 14.4 22.725 14.5125 22.975 14.7375C23.225 14.9625 23.35 15.2667 23.35 15.65C23.35 15.8833 23.2833 16.1042 23.15 16.3125C23.0167 16.5208 22.7833 16.7833 22.45 17.1C21.9 17.5833 21.5625 17.9625 21.4375 18.2375C21.3125 18.5125 21.25 19.0333 21.25 19.8ZM16 26C15.45 26 14.9792 25.8042 14.5875 25.4125C14.1958 25.0208 14 24.55 14 24V12C14 11.45 14.1958 10.9792 14.5875 10.5875C14.9792 10.1958 15.45 10 16 10H28C28.55 10 29.0208 10.1958 29.4125 10.5875C29.8042 10.9792 30 11.45 30 12V24C30 24.55 29.8042 25.0208 29.4125 25.4125C29.0208 25.8042 28.55 26 28 26H16ZM12 30C11.45 30 10.9792 29.8042 10.5875 29.4125C10.1958 29.0208 10 28.55 10 28V14H12V28H26V30H12Z" fill="#76B900"/>
</svg>
